<svg width="117" height="25" fill="none" xmlns="http://www.w3.org/2000/svg"><path fill-rule="evenodd" clip-rule="evenodd" d="M105.339 1.332h11.432v1.822a3.274 3.274 0 0 0-1.03-.17h-6.571v8.511h6.391c.46 0 .869-.05 1.209-.136v1.813c-.29-.068-.689-.102-1.183-.102h-6.417v8.801h6.375c.349 0 .766-.05 1.225-.162v1.958h-11.414c.091-.344.137-.699.137-1.055V2.413c0-.442-.052-.808-.154-1.08Zm-2.646 5.797-3.303-.025c-.162-1.856-1.225-3.653-3.566-3.984-5.014-.45-6.427 5.056-6.3 9.082.13 3.881.75 9.848 5.925 9.848 2.171 0 4.256-2.23 4.188-4.111l3.056-.025c-.222 3.88-4.673 6.127-6.793 6.204-7.243.247-10.274-4.58-10.427-11.466C85.338 6.415 87.892.872 95.05.872c6.129.086 7.312 3.712 7.644 6.257ZM51.18 21.13l2.188-1.83c1.14 1.882 2.076 2.74 4.34 2.74 2.299 0 4.231-1.395 4.231-3.863 0-1.217-.494-2.213-1.472-2.962-.444-.35-1.567-.953-3.337-1.796-2.648-1.268-5.226-2.92-5.226-6.239 0-4.188 3.557-6.035 7.31-6.172 2.223-.084 4.98 1.142 6.095 2.52l-2.221 1.71a4.645 4.645 0 0 0-4.085-2.45c-2.835 0-5.082 3.286-2.733 5.55.596.578 1.814 1.293 3.67 2.144 2.96 1.388 5.489 3.047 5.489 6.716a6.706 6.706 0 0 1-.988 3.532C63.122 22.91 60.917 24 57.836 24c-3.54 0-4.238-.809-6.656-2.869ZM20.01 1.332h11.422v1.822a3.27 3.27 0 0 0-1.029-.17h-6.57v8.511h6.392c.46 0 .868-.05 1.208-.136v1.813c-.29-.068-.69-.102-1.174-.102h-6.427v8.801h6.375c.35 0 .767-.05 1.226-.162v1.958H20.028c.084-.346.126-.7.128-1.055V2.413c0-.442-.052-.808-.145-1.08Zm-19.976 0h4.154v.205c0 .187.06.434.162.749l5.855 17.627 6.01-17.704c.093-.298.144-.587.144-.877h2.017a5.526 5.526 0 0 0-.45.954l-6.861 20.47c-.068.196-.128.503-.179.912H7.481a5.724 5.724 0 0 0-.23-.911L.529 2.447a34.434 34.434 0 0 0-.486-1.115H.034ZM44.15 12.977c2.723-.537 4.809-2.622 4.809-5.601 0-3.908-3.269-6.044-6.929-6.044h-6.69c.093.34.145.698.145 1.073v20.189c0 .434-.052.8-.145 1.073h3.983a3.94 3.94 0 0 1-.144-1.073v-9.277l1.276.136 6.674 10.214h4.009l-6.988-10.69Zm-.69-1.703c-.723.51-1.592.766-2.588.766H39.17V2.96h1.524c1.303 0 2.315.322 3.039.969.987.894 1.49 2.103 1.49 3.618 0 1.634-.588 2.877-1.763 3.728M84.81 22.74 77.37 2.073a2.703 2.703 0 0 1-.144-.74h-3.218c0 .263-.042.544-.145.825L66.654 22.74a4.071 4.071 0 0 1-.45.927h2.076c-.008-.34.034-.655.128-.927l2.136-6.07h8.214l2.11 6.07c.111.331.162.638.162.927h4.308a4.49 4.49 0 0 1-.528-.927Zm-13.704-7.713 3.473-10.086 3.566 10.086h-7.04Z" fill="#fff"/></svg>