<svg width="167" height="34" fill="none" xmlns="http://www.w3.org/2000/svg"><path fill-rule="evenodd" clip-rule="evenodd" d="M150.179 1.073h16.303v2.598a4.672 4.672 0 0 0-1.469-.243h-9.371v12.139h9.116c.655 0 1.238-.072 1.723-.194v2.586c-.413-.097-.982-.146-1.687-.146h-9.152v12.551h9.091c.499 0 1.093-.072 1.748-.23v2.792h-16.278c.13-.491.196-.997.195-1.505V2.615c0-.631-.073-1.153-.219-1.542Zm-3.774 8.267-4.71-.036c-.231-2.646-1.748-5.209-5.086-5.68-7.15-.644-9.165 7.209-8.983 12.951.183 5.535 1.068 14.044 8.449 14.044 3.096 0 6.069-3.18 5.972-5.863l4.358-.035c-.316 5.535-6.664 8.739-9.687 8.848-10.329.353-14.652-6.53-14.87-16.352-.194-8.896 3.448-16.8 13.656-16.8 8.74.123 10.427 5.294 10.901 8.923ZM72.941 29.308l3.12-2.61c1.626 2.683 2.961 3.908 6.19 3.908 3.278 0 6.034-1.99 6.034-5.51 0-1.736-.705-3.156-2.1-4.224-.632-.498-2.234-1.36-4.76-2.561-3.774-1.809-7.452-4.164-7.452-8.898C73.973 3.44 79.047.806 84.4.611 87.568.491 91.5 2.24 93.09 4.205l-3.168 2.44a6.624 6.624 0 0 0-5.826-3.496c-4.043 0-7.247 4.686-3.897 7.915.85.825 2.586 1.845 5.232 3.059 4.224 1.979 7.83 4.345 7.83 9.577a9.565 9.565 0 0 1-1.409 5.038c-1.88 3.107-5.025 4.661-9.42 4.661-5.05 0-6.044-1.153-9.492-4.091ZM28.489 1.073h16.29v2.598a4.664 4.664 0 0 0-1.469-.243h-9.37v12.139h9.115c.656 0 1.24-.072 1.724-.194v2.586c-.413-.097-.983-.146-1.674-.146H33.94v12.551h9.091a7.59 7.59 0 0 0 1.748-.23v2.792H28.514c.12-.493.18-.998.182-1.505V2.615c0-.631-.074-1.153-.207-1.542ZM0 1.073h5.924v.292c0 .267.084.619.23 1.068l8.35 25.14 8.571-25.25c.134-.424.207-.837.207-1.25h2.877c-.292.51-.51.96-.644 1.36l-9.784 29.194c-.097.28-.182.716-.254 1.3H10.62a8.162 8.162 0 0 0-.328-1.3L.704 2.664a49.107 49.107 0 0 0-.693-1.59H0ZM62.914 17.68c3.885-.765 6.859-3.739 6.859-7.988 0-5.572-4.662-8.62-9.881-8.62H50.35c.133.487.206.997.206 1.53v28.793c0 .62-.073 1.141-.206 1.53h5.68a5.614 5.614 0 0 1-.206-1.53v-13.23l1.82.195 9.518 14.565h5.717L62.915 17.68Zm-.983-2.428c-1.031.728-2.27 1.092-3.69 1.092h-2.428V3.394h2.173c1.858 0 3.302.46 4.334 1.382 1.408 1.276 2.124 3 2.124 5.16 0 2.33-.838 4.103-2.513 5.317m58.97 16.35L110.293 2.13a3.849 3.849 0 0 1-.207-1.057h-4.589c0 .377-.061.777-.207 1.178L95.01 31.603a5.81 5.81 0 0 1-.644 1.323h2.962c-.012-.486.049-.935.182-1.323l3.046-8.656h11.714l3.011 8.657c.158.472.23.909.23 1.322h6.143c-.353-.498-.607-.947-.753-1.323Zm-19.543-10.999L106.31 6.22l5.087 14.384h-10.039Z" fill="#fff"/></svg>