<svg width="110" height="27" fill="none" xmlns="http://www.w3.org/2000/svg"><g clip-path="url('#clip0_35_800')"><path d="m99.667 8.797-.204.065c-.795-1.643-1.931-2.951-3.407-3.924-1.454-.973-3.282-1.46-5.485-1.46a8.506 8.506 0 0 0-3.509.746 8.722 8.722 0 0 0-2.93 2.043c-.817.865-1.476 1.914-1.976 3.146-.5 1.233-.749 2.595-.749 4.087 0 1.492.25 2.854.75 4.086.5 1.233 1.158 2.292 1.975 3.179a8.948 8.948 0 0 0 2.93 2.01 8.837 8.837 0 0 0 3.509.714c2.18 0 3.952-.324 5.314-.973 1.386-.67 2.555-1.686 3.51-3.049l.204.065-.068 2.076a9.525 9.525 0 0 1-1.806 1.394c-.681.39-1.42.725-2.214 1.006-.772.26-1.578.454-2.419.584-.84.15-1.68.227-2.52.227-1.75 0-3.419-.27-5.008-.811-1.59-.54-2.987-1.297-4.19-2.27a11.13 11.13 0 0 1-2.862-3.568c-.704-1.405-1.056-2.962-1.056-4.67 0-1.708.352-3.254 1.056-4.638a11.022 11.022 0 0 1 2.861-3.6c1.204-.995 2.6-1.751 4.19-2.27 1.59-.54 3.26-.811 5.008-.811.84 0 1.68.065 2.521.194.84.13 1.647.336 2.419.617a10.7 10.7 0 0 1 2.214 1.005 8.59 8.59 0 0 1 1.806 1.362l.136 3.438Zm-75.07 6.195c-.25.108-.488.249-.716.422a.847.847 0 0 0-.34.713v3.99c-1.09 1.491-2.487 2.648-4.19 3.47-1.704.821-3.59 1.232-5.656 1.232a15.45 15.45 0 0 1-5.008-.81c-1.59-.541-2.986-1.298-4.19-2.27a11.128 11.128 0 0 1-2.862-3.568C.931 16.765.58 15.208.58 13.5c0-1.709.352-3.255 1.056-4.638a11.02 11.02 0 0 1 2.862-3.6c1.204-.995 2.6-1.752 4.19-2.27 1.59-.541 3.26-.812 5.008-.812.84 0 1.68.065 2.521.195.84.13 1.647.335 2.419.616.795.26 1.533.595 2.214 1.006a8.59 8.59 0 0 1 1.806 1.362l.136 3.438-.204.064c-.795-1.643-1.93-2.951-3.407-3.924-1.453-.973-3.282-1.46-5.485-1.46a8.505 8.505 0 0 0-3.508.746 8.722 8.722 0 0 0-2.93 2.044C6.439 7.132 5.78 8.18 5.28 9.414c-.5 1.232-.75 2.594-.75 4.086 0 1.47.239 2.822.716 4.054.5 1.233 1.158 2.292 1.976 3.179a9.384 9.384 0 0 0 2.93 2.043 8.919 8.919 0 0 0 3.542.713c2.362 0 4.384-.432 6.064-1.297v-6.065a.822.822 0 0 0-.374-.713 3.92 3.92 0 0 0-.682-.422l.032-.162c.113.02.317.041.613.064l.92.065h2.93c.272-.02.533-.041.783-.065.25-.02.443-.04.579-.064l.037.162Zm24.675-12.13a3.854 3.854 0 0 0-.682.422c-.227.173-.352.497-.374.973-.02.519-.044 1.178-.068 1.978 0 .779-.01 1.665-.031 2.66 0 .994-.01 2.075-.031 3.243v3.633c-.021 1.405-.203 2.605-.546 3.6-.34.994-.794 1.827-1.362 2.497a6.578 6.578 0 0 1-1.84 1.589 8.777 8.777 0 0 1-1.976.876 7.359 7.359 0 0 1-1.805.389c-.568.065-1.01.097-1.329.097-1.294 0-2.544-.162-3.747-.486-1.204-.303-2.26-.8-3.169-1.492-.908-.692-1.635-1.59-2.18-2.692-.545-1.103-.817-2.443-.817-4.022V9.09c0-1.037-.01-1.967-.032-2.789 0-.843-.01-1.524-.03-2.043-.021-.476-.146-.8-.375-.973a3.926 3.926 0 0 0-.681-.422l.03-.162c.114.02.296.042.546.065.273.02.545.041.817.065.296 0 .58.01.852.03h1.227c.272-.02.556-.03.851-.03.296-.02.568-.042.818-.065.272-.02.465-.041.579-.065l.03.162c-.249.108-.487.249-.715.422-.204.173-.318.497-.34.973-.021.519-.044 1.2-.068 2.043v9.827c0 2.357.579 4.098 1.737 5.222 1.158 1.124 2.873 1.686 5.144 1.686.659 0 1.408-.075 2.249-.227a6.137 6.137 0 0 0 2.35-1.038c.75-.519 1.374-1.254 1.874-2.205.522-.952.784-2.216.784-3.795 0-1.708-.01-3.167-.032-4.378 0-1.232-.01-2.281-.03-3.146 0-.886-.011-1.643-.032-2.27-.02-.627-.043-1.2-.068-1.72-.02-.475-.145-.8-.374-.972a3.927 3.927 0 0 0-.682-.422l.031-.162c.25.043.534.087.852.13.318.02.613.03.886.03.25 0 .533-.01.852-.03.34-.043.635-.086.885-.13l.022.162Zm24.72 5.935-.205.065c-.794-1.643-1.93-2.951-3.406-3.924-1.454-.973-3.282-1.46-5.485-1.46a8.506 8.506 0 0 0-3.509.746 8.722 8.722 0 0 0-2.93 2.043c-.817.865-1.476 1.914-1.976 3.146-.5 1.233-.749 2.595-.749 4.087 0 1.492.25 2.854.75 4.086.5 1.233 1.158 2.292 1.975 3.179a8.948 8.948 0 0 0 2.93 2.01 8.837 8.837 0 0 0 3.509.714c2.18 0 3.952-.324 5.314-.973 1.386-.67 2.555-1.686 3.51-3.049l.204.065-.068 2.076a9.528 9.528 0 0 1-1.806 1.394c-.681.39-1.42.725-2.214 1.006a14.54 14.54 0 0 1-2.419.583c-.84.152-1.68.228-2.52.228-1.75 0-3.419-.27-5.009-.811-1.59-.54-2.986-1.297-4.19-2.27a11.126 11.126 0 0 1-2.861-3.568c-.705-1.405-1.057-2.962-1.057-4.67 0-1.708.352-3.254 1.056-4.638a11.02 11.02 0 0 1 2.862-3.6c1.204-.995 2.6-1.751 4.19-2.27 1.59-.54 3.26-.811 5.008-.811.84 0 1.68.065 2.521.194.84.13 1.647.336 2.419.617.795.26 1.533.594 2.214 1.005a8.59 8.59 0 0 1 1.806 1.362l.136 3.438Zm35.943 15.47a7.73 7.73 0 0 0-.579-.064c-.25 0-.522-.01-.818-.03-.295 0-.579-.01-.851-.03h-2.044c-.273.02-.545.042-.818.065-.25.02-.443.042-.579.065l-.031-.13c.227-.108.454-.249.681-.422.228-.173.352-.497.375-.973.021-.519.031-1.06.031-1.621.021-.563.031-1.2.031-1.914V7.764c0-.713-.01-1.34-.031-1.88 0-.563-.01-1.103-.031-1.622-.021-.476-.146-.8-.375-.973a3.106 3.106 0 0 0-.681-.454l.031-.13c.136.043.329.076.579.097.273 0 .545.01.818.03.295.02.579.03.851.03h1.193c.272-.02.556-.03.851-.03.296-.02.568-.041.818-.065.272-.02.465-.041.579-.064l.031.13c-.25.108-.488.259-.715.453-.205.173-.319.498-.341.973l-.068 1.622v15.243c.021.562.043 1.103.068 1.622.02.476.134.8.341.973.227.173.465.313.715.422l-.031.127Z" fill="#fff"/></g><defs><clipPath id="clip0_35_800"><path fill="#fff" transform="translate(.58 .878)" d="M0 0h109.387v25.243H0z"/></clipPath></defs></svg>