<svg width="157" height="29" fill="none" xmlns="http://www.w3.org/2000/svg"><circle cx="14" cy="14.584" r="14" fill="#fff"/><circle cx="14" cy="14.584" r="13.5" stroke="#000" stroke-opacity=".2"/><path d="M20.207 11.567a5.098 5.098 0 0 1-1.327.372c.466-.279.838-.721 1.001-1.257a5.044 5.044 0 0 1-1.466.559 2.32 2.32 0 0 0-1.676-.722 2.285 2.285 0 0 0-2.282 2.282c0 .186.023.349.07.512a6.522 6.522 0 0 1-4.726-2.398c-.186.35-.302.722-.302 1.14 0 .792.396 1.49 1.024 1.91a2.693 2.693 0 0 1-1.047-.28v.024a2.3 2.3 0 0 0 1.838 2.258 2.54 2.54 0 0 1-.605.07c-.14 0-.302-.024-.442-.047.303.908 1.14 1.583 2.142 1.583a4.657 4.657 0 0 1-2.84.977c-.187 0-.373 0-.536-.023a6.478 6.478 0 0 0 3.515 1.024c4.214 0 6.519-3.491 6.519-6.518v-.302a4.18 4.18 0 0 0 1.14-1.164Z" fill="#000"/><circle cx="58" cy="14.584" r="14" fill="#000"/><path d="M56.709 20.887v-5.553h-1.87V13.17h1.87v-1.596c0-1.853 1.131-2.861 2.783-2.861.792 0 1.472.059 1.67.085v1.936h-1.146c-.898 0-1.072.427-1.072 1.054v1.382h2.143l-.28 2.164h-1.863v5.553h-2.235Z" fill="#fff"/><circle cx="98" cy="14.584" r="14" fill="#fff"/><circle cx="98" cy="14.584" r="13.5" stroke="#000" stroke-opacity=".2"/><path d="M98 9.031c1.81 0 2.024.007 2.738.04.43.005.855.083 1.258.233a2.24 2.24 0 0 1 1.286 1.285c.149.403.228.829.233 1.258.033.715.04.93.04 2.738 0 1.808-.007 2.023-.04 2.737-.005.43-.084.855-.233 1.258a2.24 2.24 0 0 1-1.286 1.286c-.403.15-.828.228-1.258.233-.714.033-.928.04-2.737.04-1.81 0-2.023-.007-2.738-.04a3.756 3.756 0 0 1-1.258-.233 2.244 2.244 0 0 1-1.285-1.286 3.759 3.759 0 0 1-.234-1.258c-.032-.714-.04-.928-.04-2.737 0-1.809.008-2.023.04-2.738a3.76 3.76 0 0 1 .233-1.258 2.244 2.244 0 0 1 1.286-1.285c.403-.15.829-.228 1.258-.234.715-.032.929-.039 2.738-.039Zm0-1.22c-1.838 0-2.07.007-2.792.04a4.973 4.973 0 0 0-1.645.315c-.452.17-.861.437-1.2.781a3.318 3.318 0 0 0-.782 1.2 4.971 4.971 0 0 0-.314 1.645c-.033.722-.04.954-.04 2.793 0 1.838.007 2.07.04 2.792.011.563.118 1.119.315 1.646.17.452.437.861.782 1.2.338.344.747.61 1.2.78a4.977 4.977 0 0 0 1.645.316c.722.032.953.04 2.792.04 1.84 0 2.071-.007 2.793-.04a4.969 4.969 0 0 0 1.645-.315 3.47 3.47 0 0 0 1.981-1.982 4.974 4.974 0 0 0 .315-1.645c.032-.722.04-.954.04-2.792 0-1.84-.008-2.07-.041-2.793a4.95 4.95 0 0 0-.315-1.646 3.312 3.312 0 0 0-.781-1.2 3.318 3.318 0 0 0-1.2-.78 4.97 4.97 0 0 0-1.645-.316c-.722-.032-.954-.04-2.792-.04Z" fill="#000"/><path d="M98.002 11.107a3.479 3.479 0 1 0 0 6.958 3.479 3.479 0 0 0 0-6.958Zm0 5.737a2.258 2.258 0 1 1 0-4.517 2.258 2.258 0 0 1 0 4.517ZM106.618 11.782a.812.812 0 1 0 0-1.624.812.812 0 0 0 0 1.624Z" fill="#000"/><circle cx="143" cy="14.584" r="14" fill="#fff"/><circle cx="143" cy="14.584" r="13.5" stroke="#000" stroke-opacity=".2"/><path fill-rule="evenodd" clip-rule="evenodd" d="M143.607 7.81a6.464 6.464 0 0 0-6.48 6.48c0 2.862 1.863 5.292 4.428 6.156.324.054.432-.135.432-.324v-1.107c-1.809.405-2.187-.864-2.187-.864-.297-.756-.729-.945-.729-.945-.594-.405.054-.405.054-.405.648.054.999.675.999.675.567 1 1.512.702 1.89.54.054-.432.216-.702.405-.864-1.431-.162-2.943-.729-2.943-3.213 0-.702.243-1.296.675-1.728-.054-.162-.297-.81.054-1.728 0 0 .54-.162 1.782.675a6.511 6.511 0 0 1 1.62-.216c.54 0 1.107.081 1.62.216 1.242-.837 1.782-.675 1.782-.675.351.891.135 1.54.054 1.728.405.46.675 1.026.675 1.728 0 2.484-1.512 3.024-2.97 3.186.243.19.432.594.432 1.188v1.782c0 .162.108.378.459.324a6.448 6.448 0 0 0 4.428-6.129c0-3.59-2.889-6.48-6.48-6.48Z" fill="#000"/></svg>