<svg width="65" height="27" fill="none" xmlns="http://www.w3.org/2000/svg"><g clip-path="url('#clip0_35_798')"><path d="M61.306 26.03 51.853.2l-.007-.017h-.186L49.713 5.49l-3.544 9.663-.008-.008c-1.229-1.076-2.962-1.748-5.144-1.998l-.666-.068.66-.085c3.6-.641 6.019-2.897 6.019-5.615 0-3.727-3.532-6.328-8.592-6.328H27.91v.189h3.06v19.257L23.54.2l-.006-.017h-.187L21.4 5.49l-7.508 20.472-.047.005a8.13 8.13 0 0 1-.946.061H5.313L19.734 1.241l.107-.187H2.203v7.669h.187C2.424 4.988 4.615 1.24 9.458 1.24h5.843L.771 26.215h19.575v-7.347h-.187c-.026 3.256-1.885 6.348-5.93 7.046l-.128.022 3.08-8.4h8.627l3.11 8.493H25.85v.186h12.036v-.186h-3.08V13.216h3.554c3.616 0 5.69 1.604 5.69 4.398v2.273c0 .25.018.616.037.922v.012l-1.91 5.207h-2.496v.186h5.165v-.186H42.38l1.74-4.742.005.074.048.427.046.283c.29 1.748.964 3.033 2.002 3.82l.15.107c.788.545 1.769.82 2.915.82 1.518 0 2.53-.375 3.366-1.26l-.11-.101c-.77.705-1.416.99-2.226.99-1.38 0-2.101-1.66-2.101-3.297v-3.185a7.103 7.103 0 0 0-.369-2.325l-.034-.1v-.003h6.31l3.109 8.494h-3.067v.186H64.58v-.186h-3.272ZM17.25 17.35 21.5 5.761l4.24 11.587h-8.49Zm17.56-4.32V1.24h2.712c3.623 0 5.536 2.138 5.536 6.18 0 4.299-1.098 5.61-4.697 5.61h-3.552Zm12.927 4.32-.018-.046a5.75 5.75 0 0 0-1.203-1.822l-.178-.177-.019-.017 3.491-9.526 4.24 11.587h-6.313Z" fill="#fff"/></g><defs><clipPath id="clip0_35_798"><path fill="#fff" transform="translate(.77 .177)" d="M0 0h63.809v26.645H0z"/></clipPath></defs></svg>